<svg width="100" height="100" viewBox="0 0 100 100" fill="none" xmlns="http://www.w3.org/2000/svg">
<g clip-path="url(#clip0_2542_16)">
<rect width="100" height="100" fill="white"/>
<rect width="100" height="100" fill="#00E065"/>
<path d="M15.067 59.3912L15.067 100H0L0 0L17.0716 0C25.435 0 31.7506 0.582902 36.0185 1.7487C40.3295 2.91451 44.1232 5.11658 47.3995 8.35492C53.1332 13.968 56 21.0492 56 29.5984C56 38.7522 52.9392 46.006 46.8176 51.3601C40.6959 56.7142 32.4403 59.3912 22.0508 59.3912H15.067ZM15.067 45.4016H20.6928C34.5312 45.4016 41.4503 40.0691 41.4503 29.4041C41.4503 19.0846 34.3156 13.9249 20.0462 13.9249L15.067 13.9249L15.067 45.4016Z" fill="#F1FAB4"/>
<path d="M79.9925 25.0636L58.3459 35.6214L60.5678 48.9489C61.0537 48.6369 61.5166 48.3549 61.9565 48.1027C62.4268 47.8358 62.859 47.6063 63.2532 47.414C70.0746 44.087 76.7919 43.663 83.4052 46.1419C90.034 48.5758 95.0932 53.3701 98.5829 60.525C102.191 67.9224 102.677 75.2287 100.041 82.4439C97.4055 89.6591 92.3131 95.1076 84.7641 98.7895C75.4567 103.329 65.9906 102.542 56.3659 96.4276L61.0648 85.748C65.1115 88.4279 68.6337 89.9938 71.6313 90.4458C74.6141 90.8674 77.7275 90.2872 80.9715 88.705C85.2159 86.6348 88.0536 83.4119 89.4847 79.036C90.8713 74.5692 90.5 70.153 88.3708 65.7873C86.1823 61.3003 82.9682 58.3269 78.7284 56.867C74.4443 55.3162 70.1648 55.5833 65.8901 57.6682C61.1303 59.9897 58.0352 64.07 56.6048 69.9092L53.1031 71.6171L46.1435 29.3008L75.1572 15.1499L79.9925 25.0636Z" fill="#F1FAB4"/>
</g>
<defs>
<clipPath id="clip0_2542_16">
<rect width="100" height="100" fill="white"/>
</clipPath>
</defs>
</svg>
